<svg width="28" height="29" viewBox="0 0 28 29" fill="none" xmlns="http://www.w3.org/2000/svg">
<path d="M13.6666 11H16.3333V7.00004H20.3333V4.33337H16.3333V0.333374H13.6666V4.33337H9.66658V7.00004H13.6666V11ZM8.33325 23C6.86658 23 5.67992 24.2 5.67992 25.6667C5.67992 27.1334 6.86658 28.3334 8.33325 28.3334C9.79992 28.3334 10.9999 27.1334 10.9999 25.6667C10.9999 24.2 9.79992 23 8.33325 23ZM21.6666 23C20.1999 23 19.0133 24.2 19.0133 25.6667C19.0133 27.1334 20.1999 28.3334 21.6666 28.3334C23.1333 28.3334 24.3333 27.1334 24.3333 25.6667C24.3333 24.2 23.1333 23 21.6666 23ZM9.79992 16.3334H19.7333C20.7333 16.3334 21.6132 15.7867 22.0666 14.96L27.2132 5.61337L24.8933 4.33337L19.7333 13.6667H10.3733L4.69325 1.66671H0.333252V4.33337H2.99992L7.79992 14.4534L3.82658 21.6667H24.3333V19H8.33325L9.79992 16.3334Z" fill="#222222"/>
</svg>
