<svg width="30" height="16" viewBox="0 0 30 16" fill="none" xmlns="http://www.w3.org/2000/svg">
<path d="M29 9.31501C28.993 9.28246 28.983 9.25066 28.97 9.22001C28.9588 9.19076 28.9454 9.16236 28.93 9.13501C28.9094 9.10611 28.886 9.07931 28.86 9.05501C28.8464 9.03711 28.8314 9.02041 28.815 9.00501L25.22 6.20501L25.165 6.18001C25.1383 6.15921 25.1077 6.14391 25.075 6.13501C25.0404 6.12786 25.0047 6.12786 24.97 6.13501C24.9518 6.13276 24.9333 6.13276 24.915 6.13501H21.85L22.5 0.570009C22.5086 0.500209 22.5023 0.429409 22.4816 0.362209C22.4609 0.295009 22.4263 0.23291 22.38 0.18001C22.3336 0.12421 22.2755 0.0792097 22.2099 0.0481097C22.1442 0.0170597 22.0726 0.000609216 22 9.21597e-06H8.59C8.4664 -0.000740784 8.3469 0.0443093 8.25455 0.126509C8.1622 0.208709 8.1036 0.322159 8.09 0.445009L8 1.25001H1.625C1.49239 1.25001 1.36522 1.30271 1.27145 1.39646C1.17768 1.49021 1.125 1.61741 1.125 1.75001C1.125 1.88261 1.17768 2.00981 1.27145 2.10356C1.36522 2.19736 1.49239 2.25001 1.625 2.25001H7.885L7.69 3.94001H3.075C2.94239 3.94001 2.81522 3.99271 2.72145 4.08646C2.62768 4.18021 2.575 4.30741 2.575 4.44001C2.575 4.57261 2.62768 4.69981 2.72145 4.79356C2.81522 4.88736 2.94239 4.94001 3.075 4.94001H7.575L7.38 6.62501H0.5C0.36739 6.62501 0.240215 6.67771 0.146445 6.77146C0.05268 6.86521 0 6.99241 0 7.12501C0 7.25761 0.05268 7.38481 0.146445 7.47856C0.240215 7.57236 0.36739 7.62501 0.5 7.62501H7.265L7.07 9.31501H2.375C2.24239 9.31501 2.11522 9.36771 2.02145 9.46146C1.92768 9.55521 1.875 9.68241 1.875 9.81501C1.875 9.94761 1.92768 10.0748 2.02145 10.1686C2.11522 10.2624 2.24239 10.315 2.375 10.315H6.205C6.1434 10.3463 6.0889 10.39 6.04505 10.4433C6.00115 10.4967 5.9688 10.5585 5.95 10.625L5.595 12H1.125C0.99239 12 0.865215 12.0527 0.771445 12.1465C0.67768 12.2402 0.625 12.3674 0.625 12.5C0.625 12.6326 0.67768 12.7598 0.771445 12.8536C0.865215 12.9474 0.99239 13 1.125 13H5.335L5.16 13.67C5.14125 13.7438 5.13965 13.8209 5.15525 13.8954C5.17085 13.97 5.20325 14.0399 5.25 14.1C5.2966 14.1605 5.3564 14.2096 5.42485 14.2434C5.49335 14.2772 5.56865 14.2949 5.645 14.295H8.315C8.37035 14.5458 8.47025 14.7846 8.61 15H0.5C0.36739 15 0.240215 15.0527 0.146445 15.1465C0.05268 15.2402 0 15.3674 0 15.5C0 15.6326 0.05268 15.7598 0.146445 15.8536C0.240215 15.9474 0.36739 16 0.5 16H15.845C15.9776 16 16.1048 15.9474 16.1986 15.8536C16.2923 15.7598 16.345 15.6326 16.345 15.5C16.345 15.3674 16.2923 15.2402 16.1986 15.1465C16.1048 15.0527 15.9776 15 15.845 15H12.28C12.4207 14.7887 12.5208 14.553 12.575 14.305H22C22.0525 14.5504 22.1454 14.7852 22.275 15H18.135C18.0024 15 17.8752 15.0527 17.7815 15.1465C17.6877 15.2402 17.635 15.3674 17.635 15.5C17.635 15.6326 17.6877 15.7598 17.7815 15.8536C17.8752 15.9474 18.0024 16 18.135 16H24.135C24.629 15.9984 25.108 15.8302 25.4945 15.5226C25.881 15.215 26.1525 14.786 26.265 14.305H27.73C27.8484 14.307 27.9637 14.2668 28.0552 14.1917C28.1468 14.1167 28.2087 14.0115 28.23 13.895L29 9.50001C29.0025 9.47676 29.0025 9.45331 29 9.43001C29.0033 9.39176 29.0033 9.35326 29 9.31501ZM21.435 1.00001L20.365 10.25H7.965L9.035 1.00001H21.435ZM6.825 11.25H20.19L20.05 13.295H12.58C12.4675 12.8139 12.1956 12.3849 11.8085 12.0778C11.4213 11.7707 10.9417 11.6036 10.4475 11.6036C9.95335 11.6036 9.4737 11.7707 9.08655 12.0778C8.6994 12.3849 8.4275 12.8139 8.315 13.295H6.315L6.825 11.25ZM9.25 13.795C9.25 13.4781 9.3759 13.1741 9.6 12.95C9.8241 12.7259 10.1281 12.6 10.445 12.6C10.762 12.6 11.0659 12.7259 11.29 12.95C11.5141 13.1741 11.64 13.4781 11.64 13.795C11.64 14.112 11.5141 14.4159 11.29 14.64C11.0659 14.8641 10.762 14.99 10.445 14.99C10.1281 14.99 9.8241 14.8641 9.6 14.64C9.3759 14.4159 9.25 14.112 9.25 13.795ZM24.115 15C23.8787 15 23.6476 14.9299 23.4511 14.7986C23.2546 14.6673 23.1014 14.4807 23.011 14.2623C22.9205 14.044 22.8969 13.8037 22.943 13.5719C22.9891 13.3401 23.1029 13.1272 23.27 12.96C23.4372 12.7929 23.6501 12.6791 23.8819 12.633C24.1137 12.5869 24.354 12.6106 24.5723 12.701C24.7907 12.7914 24.9773 12.9446 25.1086 13.1411C25.2399 13.3376 25.31 13.5687 25.31 13.805C25.3087 14.1216 25.1824 14.4248 24.9586 14.6486C24.7347 14.8724 24.4316 14.9987 24.115 15ZM27.29 13.305H26.245C26.1325 12.8239 25.8606 12.3949 25.4735 12.0878C25.0863 11.7807 24.6067 11.6136 24.1125 11.6136C23.6184 11.6136 23.1387 11.7807 22.7516 12.0878C22.3644 12.3949 22.0925 12.8239 21.98 13.305H21.075L21.755 7.10001H24.755L27.975 9.60001L27.29 13.305Z" fill="#003D81"/>
</svg>
