<svg width="33" height="33" viewBox="0 0 33 33" fill="none" xmlns="http://www.w3.org/2000/svg">
<path d="M2.6814 3.22304L5.00136 3.21017C6.44134 3.20219 7.58153 4.43588 7.46944 5.86319L6.43644 19.1491C6.39608 19.6638 6.46308 20.1813 6.63318 20.6688C6.80328 21.1563 7.07279 21.6031 7.42461 21.9809C7.77643 22.3588 8.20291 22.6595 8.67701 22.8639C9.15111 23.0683 9.6625 23.172 10.1788 23.1684L24.3786 23.0897C26.2985 23.079 27.9698 21.4964 28.1059 19.589L28.7704 9.58513C28.9181 7.37094 27.2282 5.58028 25.0015 5.59263L7.78848 5.68809M12.0589 11.1712L28.0587 11.0824M21.829 29.7839C22.271 29.7815 22.6939 29.6035 23.0048 29.2892C23.3156 28.975 23.4888 28.5501 23.4864 28.108C23.4839 27.666 23.306 27.2431 22.9917 26.9323C22.6774 26.6214 22.2525 26.4482 21.8105 26.4506C21.3685 26.4531 20.9455 26.631 20.6347 26.9453C20.3239 27.2596 20.1506 27.6845 20.1531 28.1265C20.1556 28.5686 20.3335 28.9915 20.6478 29.3023C20.9621 29.6131 21.387 29.7864 21.829 29.7839ZM11.1625 29.8431C11.6045 29.8406 12.0274 29.6627 12.3383 29.3484C12.6491 29.0341 12.8223 28.6092 12.8199 28.1672C12.8174 27.7252 12.6395 27.3022 12.3252 26.9914C12.0109 26.6806 11.586 26.5073 11.144 26.5098C10.702 26.5123 10.279 26.6902 9.96821 27.0045C9.65739 27.3188 9.48414 27.7437 9.4866 28.1857C9.48905 28.6277 9.66699 29.0506 9.98128 29.3615C10.2956 29.6723 10.7205 29.8455 11.1625 29.8431Z" stroke="white" stroke-width="1.5" stroke-miterlimit="10" stroke-linecap="round" stroke-linejoin="round"/>
</svg>
